<svg width="1440" height="562" viewBox="0 0 1440 562" fill="none" xmlns="http://www.w3.org/2000/svg">
<path d="M0 0C69.0643 35.7995 155.323 66.2798 254 89.584V482.19C155.323 499.891 69.0644 525.537 0 561.337V0Z" fill="#E6ECEF"/>
<path d="M1440 561.337C1370.7 525.417 1284.09 499.718 1185 482.011V89.8203C1284.09 66.4861 1370.7 35.9204 1440 0V561.337Z" fill="#E6ECEF"/>
<path d="M288 97.2236C369.491 114.621 458.65 127.25 553 134.145V451.841C458.65 455.849 369.491 463.679 288 476.478V97.2236Z" fill="#E6ECEF"/>
<path d="M1151 476.321C1069.49 463.571 980.334 455.778 886 451.799V134.217C980.334 127.366 1069.49 114.786 1151 97.4365V476.321Z" fill="#E6ECEF"/>
<path d="M587 136.365C630.401 138.869 674.811 140.169 720 140.169C764.842 140.169 808.917 138.889 852 136.423V450.535C808.917 449.144 764.842 448.5 720 448.5C674.811 448.5 630.401 449.154 587 450.567V136.365Z" fill="#E6ECEF"/>
</svg>
